<svg xmlns="http://www.w3.org/2000/svg" xmlns:xlink="http://www.w3.org/1999/xlink" width="343.9" height="204.21" version="1.1" viewBox="0 0 85.974 51.052"><defs><linearGradient id="y" x1="87.758" x2="101.25" y1="108.88" y2="108.88" gradientTransform="matrix(.72207 0 0 1.0286 -156.52 -2.9891)" gradientUnits="userSpaceOnUse"><stop offset="0" stop-color="#fff"/><stop offset="1" stop-color="#fff" stop-opacity="0"/></linearGradient></defs><g transform="translate(-7.1806 -87.037)"><rect width="85.565" height="50.792" x="7.31" y="87.167" fill="#fff" stroke="#fff" stroke-width=".259" ry="0"/></g><g transform="translate(-7.1806 -87.037)"><use transform="translate(-10,5)" xlink:href="#d"/><rect width="30.011" height="5.021" x="12.5" y="112.49" fill="#fff" fill-opacity=".752" stroke="#fff" stroke-opacity=".748" stroke-width=".251"/><use id="h" transform="translate(5)" xlink:href="#m"/><text x="84.143" y="128.471" fill="#00f" stroke-width=".25" font-family="sans-serif" font-size="2.667" style="line-height:1.25" xml:space="preserve"><tspan x="84.143" y="128.471" fill="#00f" stroke-width=".25">7</tspan></text><use transform="translate(5)" xlink:href="#h"/><text x="47.139" y="116.216" stroke-width=".676" font-family="sans-serif" font-size="7.205" transform="rotate(-19.855)" style="line-height:1.25" xml:space="preserve"><tspan x="47.139" y="116.216" stroke-width=".676" font-weight="bold">...</tspan></text><rect width="45" height="42.346" x="47.5" y="87.654" fill="#00f" fill-opacity=".171"/><text x="89.156" y="128.472" fill="#00f" stroke-width=".25" font-family="sans-serif" font-size="2.667" style="line-height:1.25" xml:space="preserve"><tspan x="89.156" y="128.472" fill="#00f" stroke-width=".25">8</tspan></text><text x="18.689" y="128.471" fill="#00f" stroke-width=".25" font-family="sans-serif" font-size="2.667" style="line-height:1.25" xml:space="preserve"><tspan x="18.689" y="128.471" fill="#00f" stroke-width=".25">-6</tspan></text><text x="49.152" y="128.471" fill="#00f" stroke-width=".25" font-family="sans-serif" font-size="2.667" style="line-height:1.25" xml:space="preserve"><tspan x="49.152" y="128.471" fill="#00f" stroke-width=".25">0</tspan></text><text x="54.128" y="128.472" fill="#00f" stroke-width=".25" font-family="sans-serif" font-size="2.667" style="line-height:1.25" xml:space="preserve"><tspan x="54.128" y="128.472" fill="#00f" stroke-width=".25">1</tspan></text><text x="59.187" y="128.49" fill="#00f" stroke-width=".25" font-family="sans-serif" font-size="2.667" style="line-height:1.25" xml:space="preserve"><tspan x="59.187" y="128.49" fill="#00f" stroke-width=".25">2</tspan></text><text x="64.157" y="128.471" fill="#00f" stroke-width=".25" font-family="sans-serif" font-size="2.667" style="line-height:1.25" xml:space="preserve"><tspan x="64.157" y="128.471" fill="#00f" stroke-width=".25">3</tspan></text><text x="69.161" y="128.472" fill="#00f" stroke-width=".25" font-family="sans-serif" font-size="2.667" style="line-height:1.25" xml:space="preserve"><tspan x="69.161" y="128.472" fill="#00f" stroke-width=".25">4</tspan></text><text x="74.165" y="128.453" fill="#00f" stroke-width=".25" font-family="sans-serif" font-size="2.667" style="line-height:1.25" xml:space="preserve"><tspan x="74.165" y="128.453" fill="#00f" stroke-width=".25">5</tspan></text><text x="43.729" y="128.472" fill="#00f" stroke-width=".25" font-family="sans-serif" font-size="2.667" style="line-height:1.25" xml:space="preserve"><tspan x="43.729" y="128.472" fill="#00f" stroke-width=".25">-1</tspan></text><text x="38.739" y="128.49" fill="#00f" stroke-width=".25" font-family="sans-serif" font-size="2.667" style="line-height:1.25" xml:space="preserve"><tspan x="38.739" y="128.49" fill="#00f" stroke-width=".25">-2</tspan></text><text x="33.712" y="128.471" fill="#00f" stroke-width=".25" font-family="sans-serif" font-size="2.667" style="line-height:1.25" xml:space="preserve"><tspan x="33.712" y="128.471" fill="#00f" stroke-width=".25">-3</tspan></text><text x="28.68" y="128.472" fill="#00f" stroke-width=".25" font-family="sans-serif" font-size="2.667" style="line-height:1.25" xml:space="preserve"><tspan x="28.68" y="128.472" fill="#00f" stroke-width=".25">-4</tspan></text><text x="23.722" y="128.453" fill="#00f" stroke-width=".25" font-family="sans-serif" font-size="2.667" style="line-height:1.25" xml:space="preserve"><tspan x="23.722" y="128.453" fill="#00f" stroke-width=".25">-5</tspan></text><text x="13.719" y="128.472" fill="#00f" stroke-width=".25" font-family="sans-serif" font-size="2.667" style="line-height:1.25" xml:space="preserve"><tspan x="13.719" y="128.472" fill="#00f" stroke-width=".25">-7</tspan></text><rect id="a" width="5" height="5" x="17.5" y="125" fill="none" stroke="#00f" stroke-width=".25"/><use id="x" transform="translate(5)" xlink:href="#a"/><use id="w" transform="translate(5)" xlink:href="#x"/><use transform="translate(-5)" xlink:href="#a"/><use id="v" transform="translate(5)" xlink:href="#w"/><use id="u" transform="translate(5)" xlink:href="#v"/><use id="t" transform="translate(5)" xlink:href="#u"/><use id="s" transform="translate(5)" xlink:href="#t"/><use id="r" transform="translate(5)" xlink:href="#s"/><use id="q" transform="translate(5)" xlink:href="#r"/><use id="p" transform="translate(5)" xlink:href="#q"/><use id="o" transform="translate(5)" xlink:href="#p"/><use id="n" transform="translate(5)" xlink:href="#o"/><use id="m" transform="translate(5)" xlink:href="#n"/><text x="79.143" y="128.471" fill="#00f" stroke-width=".25" font-family="sans-serif" font-size="2.667" style="line-height:1.25" xml:space="preserve"><tspan x="79.143" y="128.471" fill="#00f" stroke-width=".25">6</tspan></text><g><path stroke-width=".25" d="m12.5 120v-29.806" color="#000" style="-inkscape-stroke:none"/><path d="m12.375 90.193v29.807h0.25v-29.807z" color="#000" style="-inkscape-stroke:none"/><path fill-rule="evenodd" stroke-width=".125" d="m12.5 90.194 0.625 0.625-0.625-2.1875-0.625 2.1875z"/></g><path id="l" fill="none" stroke="#000" stroke-width=".25" d="m11.25 110h2.5"/><use id="k" transform="translate(0,5)" xlink:href="#l"/><use id="j" transform="translate(0,-10)" xlink:href="#k"/><use id="i" transform="translate(0,-5)" xlink:href="#j"/><use transform="translate(0,-5)" xlink:href="#i"/><text x="8.152" y="105.971" stroke-width=".25" font-family="sans-serif" font-size="2.667" style="line-height:1.25" xml:space="preserve"><tspan x="8.152" y="105.971" stroke-width=".25">0</tspan></text><text x="7.729" y="110.972" stroke-width=".25" font-family="sans-serif" font-size="2.667" style="line-height:1.25" xml:space="preserve"><tspan x="7.729" y="110.972" stroke-width=".25">-1</tspan></text><text x="7.739" y="115.99" stroke-width=".25" font-family="sans-serif" font-size="2.667" style="line-height:1.25" xml:space="preserve"><tspan x="7.739" y="115.99" stroke-width=".25">-2</tspan></text><text x="8.128" y="100.972" stroke-width=".25" font-family="sans-serif" font-size="2.667" style="line-height:1.25" xml:space="preserve"><tspan x="8.128" y="100.972" stroke-width=".25">1</tspan></text><text x="8.187" y="95.99" stroke-width=".25" font-family="sans-serif" font-size="2.667" style="line-height:1.25" xml:space="preserve"><tspan x="8.187" y="95.99" stroke-width=".25">2</tspan></text><text x="9.137" y="128.513" fill="#00f" stroke-width=".25" font-family="sans-serif" font-size="2.667" style="line-height:1.25" xml:space="preserve"><tspan x="9.137" y="128.513" fill="#00f" stroke-width=".25"><tspan font-style="italic">k</tspan></tspan></text><text x="10.034" y="89.167" stroke-width=".25" font-family="sans-serif" font-size="2.667" style="line-height:1.25" xml:space="preserve"><tspan x="10.034" y="89.167" stroke-width=".25" font-style="italic">p</tspan></text><path fill="#00f" d="m24.875 131.5v2.5h0.25v-2.5z" color="#000" style="-inkscape-stroke:none"/><g fill="#00f" fill-rule="evenodd"><path stroke-width=".167" d="m25 130.75c0.125 0.375 0.375 0.875 0.625 1.125 0 0-0.5 0-0.625-0.25-0.125 0.25-0.625 0.25-0.625 0.25 0.25-0.25 0.5-0.75 0.625-1.125z" color="#000" style="-inkscape-stroke:none"/><path d="m25 130.49-0.07813 0.23828c-0.12149 0.36446-0.37511 0.86144-0.60547 1.0918l-0.14258 0.14257h0.20118s0.13237 3.2e-4 0.2832-0.0332c0.12395-0.0275 0.24818-0.10895 0.3418-0.2168 0.09361 0.10785 0.21785 0.18926 0.3418 0.2168 0.15083 0.0335 0.2832 0.0332 0.2832 0.0332h0.20117l-0.14258-0.14257c-0.23036-0.23036-0.48398-0.72734-0.60547-1.0918zm0 0.42969c0.11535 0.30251 0.28301 0.6151 0.47656 0.85742-0.04136-4e-3 -0.04724-8e-5 -0.09961-0.0117-0.13042-0.029-0.26011-0.0886-0.30273-0.17383l-0.074218-0.14846-0.07422 0.14844c-0.04262 0.0853-0.17232 0.14485-0.30273 0.17383-0.05237 0.0116-0.05825 7e-3 -0.09961 0.0117 0.19355-0.24232 0.36122-0.55491 0.47656-0.85742z" color="#000" style="-inkscape-stroke:none"/></g><text x="23.824" y="136.846" fill="#00f" stroke-width=".25" font-family="sans-serif" font-size="2.667" style="line-height:1.25" xml:space="preserve"><tspan x="23.824" y="136.846" fill="#00f" stroke-width=".25"><tspan font-style="italic">k</tspan><tspan baseline-shift="sub" font-size="65%">min</tspan></tspan></text><g id="c" transform="translate(-7.5,17.5)"><rect width="30" height="5" x="40" y="85" fill="#fff" fill-opacity=".638" stroke="#000" stroke-width=".25"/><path id="b" fill="none" stroke="#ccc" stroke-width=".25" d="m45 90v-5"/><use id="g" transform="translate(10)" xlink:href="#b"/><use id="f" transform="translate(5)" xlink:href="#g"/><use transform="translate(5)" xlink:href="#f"/><use transform="translate(5)" xlink:href="#b"/><rect width="5" height="5" x="55" y="85" fill="#ccc" fill-opacity=".638"/><text x="55.613" y="88.246" fill="#666" stroke-width=".25" font-family="sans-serif" font-size="2" style="line-height:1.25" xml:space="preserve"><tspan x="55.613" y="88.246" fill="#666" stroke-width=".25" font-size="2">mid</tspan></text></g><use id="e" transform="translate(10,-5)" xlink:href="#c"/><use transform="translate(10,-5)" xlink:href="#e"/><use id="d" transform="translate(-10,5)" xlink:href="#c"/><rect width="9.742" height="43.448" x="-93.155" y="87.276" fill="url(#y)" transform="scale(-1,1)"/><text x="15.229" y="110.509" stroke-width=".25" font-family="sans-serif" font-size="2.667" style="line-height:1.25" xml:space="preserve"><tspan x="15.229" y="110.509" stroke-width=".25"><tspan font-style="italic">p</tspan><tspan baseline-shift="sub" font-size="65%">min</tspan></tspan></text><text x="15.229" y="95.468" stroke-width=".25" font-family="sans-serif" font-size="2.667" style="line-height:1.25" xml:space="preserve"><tspan x="15.229" y="95.468" stroke-width=".25" font-style="italic"><tspan>p</tspan><tspan baseline-shift="sub" font-size="65%">lb</tspan></tspan></text><path fill="#00f" d="m74.875 131.76v2.5h0.25v-2.5z" color="#000"/><g fill="#00f" fill-rule="evenodd"><path stroke-width=".167" d="m75 131.01c0.125 0.375 0.375 0.875 0.625 1.125 0 0-0.5 0-0.625-0.25-0.125 0.25-0.625 0.25-0.625 0.25 0.25-0.25 0.5-0.75 0.625-1.125z" color="#000"/><path d="m75 130.74-0.07813 0.23633c-0.12149 0.36446-0.37511 0.86144-0.60547 1.0918l-0.14258 0.14257h0.20118s0.13237 3.2e-4 0.2832-0.0332c0.12389-0.0275 0.24818-0.1071 0.3418-0.21484 0.09362 0.10774 0.2179 0.18731 0.3418 0.21484 0.15083 0.0335 0.2832 0.0332 0.2832 0.0332h0.20117l-0.14258-0.14257c-0.23036-0.23036-0.48398-0.72734-0.60547-1.0918zm0 0.42969c0.11535 0.30251 0.28301 0.6151 0.47656 0.85742-0.04136-4e-3 -0.04724-8e-5 -0.09961-0.0117-0.13042-0.029-0.26011-0.0905-0.30273-0.17578l-0.074218-0.14846-0.07422 0.14844c-0.04262 0.0853-0.17232 0.1468-0.30273 0.17578-0.05237 0.0116-0.05825 7e-3 -0.09961 0.0117 0.19355-0.24232 0.36122-0.55491 0.47656-0.85742z" color="#000"/></g><text x="73.39" y="136.834" fill="#00f" stroke-width=".25" font-family="sans-serif" font-size="2.667" style="line-height:1.25" xml:space="preserve"><tspan x="73.39" y="136.834" fill="#00f" stroke-width=".25" font-style="italic"><tspan>k</tspan><tspan baseline-shift="sub" font-size="65%">lb</tspan></tspan></text><path fill="none" stroke="#000" stroke-width=".25" d="m50 121.25v-2.5"/><path fill="none" stroke="#000" stroke-width=".25" d="m60 121.25v-2.5"/><path fill="none" stroke="#000" stroke-width=".25" d="m70 121.25v-2.5"/><path fill="none" stroke="#000" stroke-width=".25" d="m40 121.25v-2.5"/><path fill="none" stroke="#000" stroke-width=".25" d="m30 121.25v-2.5"/><path fill="none" stroke="#000" stroke-width=".25" d="m20 121.25v-2.5"/><path fill="none" stroke="#000" stroke-width=".25" d="m80 121.25v-2.5"/><g stroke-width=".25" font-family="sans-serif" font-size="2.667"><text x="44.152" y="123.774" style="line-height:1.25" transform="translate(5)" xml:space="preserve"><tspan x="44.152" y="123.774" stroke-width=".25">0</tspan></text><text x="54.128" y="123.812" style="line-height:1.25" transform="translate(5)" xml:space="preserve"><tspan x="54.128" y="123.812" stroke-width=".25">2</tspan></text><text x="64.187" y="123.812" style="line-height:1.25" transform="translate(5)" xml:space="preserve"><tspan x="64.187" y="123.812" stroke-width=".25">4</tspan></text><text x="74.157" y="123.774" style="line-height:1.25" transform="translate(5)" xml:space="preserve"><tspan x="74.157" y="123.774" stroke-width=".25">6</tspan></text><text x="33.205" y="123.812" style="line-height:1.25" transform="translate(5)" xml:space="preserve"><tspan x="33.205" y="123.812" stroke-width=".25">-2</tspan></text><text x="23.215" y="123.812" style="line-height:1.25" transform="translate(5)" xml:space="preserve"><tspan x="23.215" y="123.812" stroke-width=".25">-4</tspan></text><text x="13.188" y="123.774" style="line-height:1.25" transform="translate(5)" xml:space="preserve"><tspan x="13.188" y="123.774" stroke-width=".25">-6</tspan></text></g><text x="91.308" y="122.866" stroke-width=".25" font-family="sans-serif" font-size="2.667" style="line-height:1.25" xml:space="preserve"><tspan x="91.308" y="122.866" stroke-width=".25"><tspan font-style="italic">t</tspan></tspan></text><g><path stroke-width=".25" d="m12.5 120h77.5" color="#000" style="-inkscape-stroke:none"/><path d="m12.5 119.88v0.25h77.5v-0.25z" color="#000" style="-inkscape-stroke:none"/><path fill-rule="evenodd" stroke-width=".125" d="m90 120-0.625 0.625 2.1875-0.625-2.1875-0.625z"/></g><text x="48.625" y="90.211" fill="#00f" stroke-width=".25" font-family="sans-serif" font-size="2.667" style="line-height:1.25" xml:space="preserve"><tspan x="48.625" y="90.211" fill="#00f" stroke-width=".25">Signal <tspan fill="#00f" font-family="sans-serif" font-style="italic">x[k]</tspan> →</tspan></text></g></svg>