<svg xmlns="http://www.w3.org/2000/svg" xmlns:xlink="http://www.w3.org/1999/xlink" width="353.32" height="222.72" version="1.1" viewBox="0 0 88.33 55.681"><defs><linearGradient id="h" x1="87.758" x2="101.25" y1="108.88" y2="108.88" gradientTransform="matrix(.6835 0 0 .99756 -35.284 71.09)" gradientUnits="userSpaceOnUse"><stop offset="0" stop-color="#fff"/><stop offset="1" stop-color="#fff" stop-opacity="0"/></linearGradient></defs><g transform="translate(-16.944 -151.91)"><rect width="87.791" height="55.416" x="17.077" y="152.04" fill="#fff" stroke="#fff" stroke-width=".265"/></g><g transform="translate(-16.944 -151.91)"><rect width="40" height="41.179" x="27.5" y="158.82" fill="#00f" fill-opacity=".171"/><path fill="none" stroke="#000" stroke-width=".25" d="m60 191.25v-2.5"/><path fill="none" stroke="#000" stroke-width=".25" d="m70 191.25v-2.5"/><path fill="none" stroke="#000" stroke-width=".25" d="m80 191.25v-2.5"/><path fill="none" stroke="#000" stroke-width=".25" d="m50 191.25v-2.5"/><path fill="none" stroke="#000" stroke-width=".25" d="m40 191.25v-2.5"/><path fill="none" stroke="#000" stroke-width=".25" d="m30 191.25v-2.5"/><path fill="none" stroke="#000" stroke-width=".25" d="m90 191.25v-2.5"/><text x="68.322" y="193.49" stroke-width=".25" font-family="sans-serif" font-size="2.667" style="line-height:1.25" xml:space="preserve"><tspan x="68.322" y="193.49" stroke-width=".25">50</tspan></text><text x="78.29" y="193.49" stroke-width=".25" font-family="sans-serif" font-size="2.667" style="line-height:1.25" xml:space="preserve"><tspan x="78.29" y="193.49" stroke-width=".25">52</tspan></text><text x="88.32" y="193.49" stroke-width=".25" font-family="sans-serif" font-size="2.667" style="line-height:1.25" xml:space="preserve"><tspan x="88.32" y="193.49" stroke-width=".25">54</tspan></text><text x="28.329" y="193.49" stroke-width=".25" font-family="sans-serif" font-size="2.667" style="line-height:1.25" xml:space="preserve"><tspan x="28.329" y="193.49">42</tspan></text><text x="58.281" y="193.49" stroke-width=".25" font-family="sans-serif" font-size="2.667" style="line-height:1.25" xml:space="preserve"><tspan x="58.281" y="193.49" stroke-width=".25">48</tspan></text><text x="48.312" y="193.49" stroke-width=".25" font-family="sans-serif" font-size="2.667" style="line-height:1.25" xml:space="preserve"><tspan x="48.312" y="193.49" stroke-width=".25">46</tspan></text><text x="38.339" y="193.49" stroke-width=".25" font-family="sans-serif" font-size="2.667" style="line-height:1.25" xml:space="preserve"><tspan x="38.339" y="193.49" stroke-width=".25">44</tspan></text><text x="104.147" y="192.418" stroke-width=".25" font-family="sans-serif" font-size="2.667" style="line-height:1.25" xml:space="preserve"><tspan x="104.147" y="192.418" stroke-width=".25"><tspan font-style="italic">t</tspan></tspan></text><rect id="g" width="5" height="5" x="92.5" y="195" fill="none" stroke="#00f" stroke-width=".25"/><text x="93.317" y="198.453" fill="#00f" stroke-width=".25" font-family="sans-serif" font-size="2.667" style="line-height:1.25" xml:space="preserve"><tspan x="93.317" y="198.453">55</tspan></text><rect id="f" width="5" height="5" x="57.5" y="195" fill="none" stroke="#00f" stroke-width=".25"/><rect id="e" width="5" height="5" x="62.5" y="195" fill="none" stroke="#00f" stroke-width=".25"/><rect id="d" width="5" height="5" x="67.5" y="195" fill="none" stroke="#00f" stroke-width=".25"/><rect id="c" width="5" height="5" x="72.5" y="195" fill="none" stroke="#00f" stroke-width=".25"/><rect width="5" height="5" x="77.5" y="195" fill="none" stroke="#00f" stroke-width=".25"/><rect width="5" height="5" x="82.5" y="195" fill="none" stroke="#00f" stroke-width=".25"/><rect width="5" height="5" x="87.5" y="195" fill="none" stroke="#00f" stroke-width=".25"/><text x="88.317" y="198.453" fill="#00f" stroke-width=".25" font-family="sans-serif" font-size="2.667" style="line-height:1.25" xml:space="preserve"><tspan x="88.317" y="198.453">54</tspan></text><text x="83.317" y="198.453" fill="#00f" stroke-width=".25" font-family="sans-serif" font-size="2.667" style="line-height:1.25" xml:space="preserve"><tspan x="83.317" y="198.453">53</tspan></text><text x="78.317" y="198.453" fill="#00f" stroke-width=".25" font-family="sans-serif" font-size="2.667" style="line-height:1.25" xml:space="preserve"><tspan x="78.317" y="198.453">52</tspan></text><text x="73.317" y="198.453" fill="#00f" stroke-width=".25" font-family="sans-serif" font-size="2.667" style="line-height:1.25" xml:space="preserve"><tspan x="73.317" y="198.453">51</tspan></text><text x="68.317" y="198.453" fill="#00f" stroke-width=".25" font-family="sans-serif" font-size="2.667" style="line-height:1.25" xml:space="preserve"><tspan x="68.317" y="198.453">50</tspan></text><text x="63.317" y="198.453" fill="#00f" stroke-width=".25" font-family="sans-serif" font-size="2.667" style="line-height:1.25" xml:space="preserve"><tspan x="63.317" y="198.453">49</tspan></text><text x="58.317" y="198.453" fill="#00f" stroke-width=".25" font-family="sans-serif" font-size="2.667" style="line-height:1.25" xml:space="preserve"><tspan x="58.317" y="198.453">48</tspan></text><use id="b" transform="translate(-20)" xlink:href="#f"/><use id="a" transform="translate(-20)" xlink:href="#e"/><use transform="translate(-20)" xlink:href="#d"/><use transform="translate(-20)" xlink:href="#c"/><text x="53.324" y="198.453" fill="#00f" stroke-width=".25" font-family="sans-serif" font-size="2.667" style="line-height:1.25" xml:space="preserve"><tspan x="53.324" y="198.453">47</tspan></text><text x="48.322" y="198.471" fill="#00f" stroke-width=".25" font-family="sans-serif" font-size="2.667" style="line-height:1.25" xml:space="preserve"><tspan x="48.322" y="198.471">46</tspan></text><text x="43.355" y="198.453" fill="#00f" stroke-width=".25" font-family="sans-serif" font-size="2.667" style="line-height:1.25" xml:space="preserve"><tspan x="43.355" y="198.453">45</tspan></text><text x="38.313" y="198.472" fill="#00f" stroke-width=".25" font-family="sans-serif" font-size="2.667" style="line-height:1.25" xml:space="preserve"><tspan x="38.313" y="198.472">44</tspan></text><g transform="translate(32.5,75)"><rect width="30" height="5" x="40" y="85" fill="#fff" fill-opacity=".638" stroke="#000" stroke-width=".25"/><path fill="none" stroke="#ccc" stroke-width=".25" d="m45 90v-5"/><path fill="none" stroke="#ccc" stroke-width=".25" d="m55 90v-5"/><path fill="none" stroke="#ccc" stroke-width=".25" d="m60 90v-5"/><path fill="none" stroke="#ccc" stroke-width=".25" d="m65 90v-5"/><path fill="none" stroke="#ccc" stroke-width=".25" d="m50 90v-5"/><rect width="5" height="5" x="55" y="85" fill="#ccc" fill-opacity=".638"/><text x="55.613" y="88.246" fill="#666" stroke-width=".25" font-family="sans-serif" font-size="2" style="line-height:1.25" xml:space="preserve"><tspan x="55.613" y="88.246" fill="#666" stroke-width=".25" font-size="2">mid</tspan></text></g><rect width="30" height="5" x="72.5" y="160" fill="#fff" fill-opacity=".752" stroke="#fff" stroke-opacity=".748" stroke-width=".25"/><g transform="translate(2.5,90)"><rect width="30" height="5" x="40" y="85" fill="#fff" fill-opacity=".638" stroke="#000" stroke-width=".25"/><path fill="none" stroke="#ccc" stroke-width=".25" d="m45 90v-5"/><path fill="none" stroke="#ccc" stroke-width=".25" d="m55 90v-5"/><path fill="none" stroke="#ccc" stroke-width=".25" d="m60 90v-5"/><path fill="none" stroke="#ccc" stroke-width=".25" d="m65 90v-5"/><path fill="none" stroke="#ccc" stroke-width=".25" d="m50 90v-5"/><rect width="5" height="5" x="55" y="85" fill="#ccc" fill-opacity=".638"/><text x="55.613" y="88.246" fill="#666" stroke-width=".25" font-family="sans-serif" font-size="2" style="line-height:1.25" xml:space="preserve"><tspan x="55.613" y="88.246" fill="#666" stroke-width=".25" font-size="2">mid</tspan></text></g><g transform="translate(12.5,85)"><rect width="30" height="5" x="40" y="85" fill="#fff" fill-opacity=".638" stroke="#000" stroke-width=".25"/><path fill="none" stroke="#ccc" stroke-width=".25" d="m45 90v-5"/><path fill="none" stroke="#ccc" stroke-width=".25" d="m55 90v-5"/><path fill="none" stroke="#ccc" stroke-width=".25" d="m60 90v-5"/><path fill="none" stroke="#ccc" stroke-width=".25" d="m65 90v-5"/><path fill="none" stroke="#ccc" stroke-width=".25" d="m50 90v-5"/><rect width="5" height="5" x="55" y="85" fill="#ccc" fill-opacity=".638"/><text x="55.613" y="88.246" fill="#666" stroke-width=".25" font-family="sans-serif" font-size="2" style="line-height:1.25" xml:space="preserve"><tspan x="55.613" y="88.246" fill="#666" stroke-width=".25" font-size="2">mid</tspan></text></g><g transform="translate(22.5,80)"><rect width="30" height="5" x="40" y="85" fill="#fff" fill-opacity=".638" stroke="#000" stroke-width=".25"/><path fill="none" stroke="#ccc" stroke-width=".25" d="m45 90v-5"/><path fill="none" stroke="#ccc" stroke-width=".25" d="m55 90v-5"/><path fill="none" stroke="#ccc" stroke-width=".25" d="m60 90v-5"/><path fill="none" stroke="#ccc" stroke-width=".25" d="m65 90v-5"/><path fill="none" stroke="#ccc" stroke-width=".25" d="m50 90v-5"/><rect width="5" height="5" x="55" y="85" fill="#ccc" fill-opacity=".638"/><text x="55.613" y="88.246" fill="#666" stroke-width=".25" font-family="sans-serif" font-size="2" style="line-height:1.25" xml:space="preserve"><tspan x="55.613" y="88.246" fill="#666" stroke-width=".25" font-size="2">mid</tspan></text></g><g transform="translate(-7.5,95)"><rect width="30" height="5" x="40" y="85" fill="#fff" fill-opacity=".638" stroke="#000" stroke-width=".25"/><path fill="none" stroke="#ccc" stroke-width=".25" d="m45 90v-5"/><path fill="none" stroke="#ccc" stroke-width=".25" d="m55 90v-5"/><path fill="none" stroke="#ccc" stroke-width=".25" d="m60 90v-5"/><path fill="none" stroke="#ccc" stroke-width=".25" d="m65 90v-5"/><path fill="none" stroke="#ccc" stroke-width=".25" d="m50 90v-5"/><rect width="5" height="5" x="55" y="85" fill="#ccc" fill-opacity=".638"/><text x="55.613" y="88.246" fill="#666" stroke-width=".25" font-family="sans-serif" font-size="2" style="line-height:1.25" xml:space="preserve"><tspan x="55.613" y="88.246" fill="#666" stroke-width=".25" font-size="2">mid</tspan></text></g><text x="-40.725" y="185.89" stroke-width=".676" font-family="sans-serif" font-size="7.205" transform="rotate(-19.855)" style="line-height:1.25" xml:space="preserve"><tspan x="-40.725" y="185.89" stroke-width=".676" font-weight="bold">...</tspan></text><use transform="translate(-10)" xlink:href="#b"/><use transform="translate(-10)" xlink:href="#a"/><text x="33.345" y="198.471" fill="#00f" stroke-width=".25" font-family="sans-serif" font-size="2.667" style="line-height:1.25" xml:space="preserve"><tspan x="33.345" y="198.471">43</tspan></text><text x="28.372" y="198.49" fill="#00f" stroke-width=".25" font-family="sans-serif" font-size="2.667" style="line-height:1.25" xml:space="preserve"><tspan x="28.372" y="198.49">42</tspan></text><rect width="9.221" height="42.138" x="24.699" y="158.63" fill="url(#h)"/><g><path d="m22.375 155v34.807h0.25v-34.807z" color="#000" style="-inkscape-stroke:none"/><path fill-rule="evenodd" stroke-width=".125" d="m22.5 155 0.625 0.625-0.625-2.1875-0.625 2.1875z"/></g><path fill="none" stroke="#000" stroke-width=".25" d="m21.25 177.5h2.5"/><path fill="none" stroke="#000" stroke-width=".25" d="m21.25 182.5h2.5"/><path fill="none" stroke="#000" stroke-width=".25" d="m21.25 172.5h2.5"/><path fill="none" stroke="#000" stroke-width=".25" d="m21.25 167.5h2.5"/><path fill="none" stroke="#000" stroke-width=".25" d="m21.25 162.5h2.5"/><text x="17.322" y="173.471" stroke-width=".25" font-family="sans-serif" font-size="2.667" style="line-height:1.25" xml:space="preserve"><tspan x="17.322" y="173.471" stroke-width=".25">25</tspan></text><text x="17.281" y="178.472" stroke-width=".25" font-family="sans-serif" font-size="2.667" style="line-height:1.25" xml:space="preserve"><tspan x="17.281" y="178.472" stroke-width=".25">24</tspan></text><text x="17.312" y="183.49" stroke-width=".25" font-family="sans-serif" font-size="2.667" style="line-height:1.25" xml:space="preserve"><tspan x="17.312" y="183.49" stroke-width=".25">23</tspan></text><text x="17.29" y="168.472" stroke-width=".25" font-family="sans-serif" font-size="2.667" style="line-height:1.25" xml:space="preserve"><tspan x="17.29" y="168.472" stroke-width=".25">26</tspan></text><text x="17.32" y="163.49" stroke-width=".25" font-family="sans-serif" font-size="2.667" style="line-height:1.25" xml:space="preserve"><tspan x="17.32" y="163.49" stroke-width=".25">27</tspan></text><text x="20.067" y="154.083" stroke-width=".25" font-family="sans-serif" font-size="2.667" style="line-height:1.25" xml:space="preserve"><tspan x="20.067" y="154.083" stroke-width=".25" font-style="italic">p</tspan></text><text x="24.878" y="162.994" stroke-width=".25" font-family="sans-serif" font-size="2.667" style="line-height:1.25" xml:space="preserve"><tspan x="24.878" y="162.994" stroke-width=".25"><tspan font-style="italic">p</tspan><tspan baseline-shift="sub" font-size="65%">max</tspan></tspan></text><text x="25" y="178.13" stroke-width=".25" font-family="sans-serif" font-size="2.667" style="line-height:1.25" xml:space="preserve"><tspan x="25" y="178.13" stroke-width=".25" font-style="italic"><tspan>p<tspan baseline-shift="sub" font-size="65%">u</tspan></tspan><tspan baseline-shift="sub" font-size="65%">b</tspan></tspan></text><g><path stroke-width=".25" d="m22.5 190h80" color="#000" style="-inkscape-stroke:none"/><path d="m22.5 189.88v0.25h80v-0.25z" color="#000" style="-inkscape-stroke:none"/><path fill-rule="evenodd" stroke-width=".125" d="m102.5 190-0.625 0.625 2.1875-0.625-2.1875-0.625z"/></g><path fill="#00f" d="m94.875 201.25v2.5h0.25v-2.5z" color="#000" style="-inkscape-stroke:none"/><g fill="#00f" fill-rule="evenodd"><path stroke-width=".167" d="m95 200.5c0.125 0.375 0.375 0.875 0.625 1.125 0 0-0.5 0-0.625-0.25-0.125 0.25-0.625 0.25-0.625 0.25 0.25-0.25 0.5-0.75 0.625-1.125z" color="#000" style="-inkscape-stroke:none"/><path d="m95 200.24-0.07813 0.23828c-0.12149 0.36446-0.37511 0.86144-0.60547 1.0918l-0.14258 0.14257h0.20118s0.13237 3.2e-4 0.2832-0.0332c0.12395-0.0275 0.24818-0.10895 0.3418-0.2168 0.09361 0.10785 0.21785 0.18926 0.3418 0.2168 0.15083 0.0335 0.2832 0.0332 0.2832 0.0332h0.20117l-0.14258-0.14257c-0.23036-0.23036-0.48398-0.72734-0.60547-1.0918zm0 0.42969c0.11535 0.30251 0.28301 0.6151 0.47656 0.85742-0.04136-4e-3 -0.04724-8e-5 -0.09961-0.0117-0.13042-0.029-0.26011-0.0886-0.30273-0.17383l-0.074218-0.14846-0.07422 0.14844c-0.04262 0.0853-0.17232 0.14485-0.30273 0.17383-0.05237 0.0116-0.05825 7e-3 -0.09961 0.0117 0.19355-0.24232 0.36122-0.55491 0.47656-0.85742z" color="#000" style="-inkscape-stroke:none"/></g><text x="93.5" y="206.09" fill="#00f" stroke-width=".25" font-family="sans-serif" font-size="2.667" style="line-height:1.25" xml:space="preserve"><tspan x="93.5" y="206.09" fill="#00f" stroke-width=".25"><tspan font-style="italic">k</tspan><tspan baseline-shift="sub" font-size="65%">max</tspan></tspan></text><path fill="#00f" d="m44.875 201.25v2.5h0.25v-2.5z" color="#000"/><g fill="#00f" fill-rule="evenodd"><path stroke-width=".167" d="m45 200.5c0.125 0.375 0.375 0.875 0.625 1.125 0 0-0.5 0-0.625-0.25-0.125 0.25-0.625 0.25-0.625 0.25 0.25-0.25 0.5-0.75 0.625-1.125z" color="#000"/><path d="m45 200.24-0.07813 0.23828c-0.12149 0.36446-0.37511 0.86144-0.60547 1.0918l-0.14258 0.14257h0.20118s0.13237 3.2e-4 0.2832-0.0332c0.12395-0.0275 0.24818-0.10895 0.3418-0.2168 0.09361 0.10785 0.21785 0.18926 0.3418 0.2168 0.15083 0.0335 0.2832 0.0332 0.2832 0.0332h0.20117l-0.14258-0.14257c-0.23036-0.23036-0.48398-0.72734-0.60547-1.0918zm0 0.42969c0.11535 0.30251 0.28301 0.6151 0.47656 0.85742-0.04136-4e-3 -0.04724-8e-5 -0.09961-0.0117-0.13042-0.029-0.26011-0.0886-0.30273-0.17383l-0.074218-0.14846-0.07422 0.14844c-0.04262 0.0853-0.17232 0.14485-0.30273 0.17383-0.05237 0.0116-0.05825 7e-3 -0.09961 0.0117 0.19355-0.24232 0.36122-0.55491 0.47656-0.85742z" color="#000"/></g><text x="43.39" y="206.327" fill="#00f" stroke-width=".25" font-family="sans-serif" font-size="2.667" style="line-height:1.25" xml:space="preserve"><tspan x="43.39" y="206.327" fill="#00f" stroke-width=".25" font-style="italic"><tspan>k</tspan><tspan baseline-shift="sub" font-size="65%">ub</tspan></tspan></text><text x="24.137" y="198.513" fill="#00f" stroke-width=".25" font-family="sans-serif" font-size="2.667" style="line-height:1.25" xml:space="preserve"><tspan x="24.137" y="198.513" fill="#00f" stroke-width=".25"><tspan font-style="italic">k</tspan></tspan></text><use transform="translate(5)" xlink:href="#g"/><text x="98.317" y="198.453" fill="#00f" stroke-width=".25" font-family="sans-serif" font-size="2.667" style="line-height:1.25" xml:space="preserve"><tspan x="98.317" y="198.453" fill="#00f" stroke-width=".25">56</tspan></text><path fill="none" stroke="#000" stroke-width=".25" d="m100 191.25v-2.5"/><text x="98.284" y="193.471" stroke-width=".25" font-family="sans-serif" font-size="2.667" style="line-height:1.25" xml:space="preserve"><tspan x="98.284" y="193.471" stroke-width=".25">56</tspan></text><text x="49.922" y="161.805" fill="#00f" stroke-width=".25" font-family="sans-serif" font-size="2.667" style="line-height:1.25" xml:space="preserve"><tspan x="49.922" y="161.805" fill="#00f" stroke-width=".25">â† Signal <tspan fill="#00f" font-family="sans-serif" font-style="italic">x[k]</tspan></tspan></text></g></svg>